<svg xmlns="http://www.w3.org/2000/svg" viewBox="0 0 64 64" role="img" aria-label="Proctora">
  <defs>
    <linearGradient id="shield" x1="0" y1="0" x2="1" y2="1">
      <stop offset="0" stop-color="#9333ea"/>
      <stop offset="1" stop-color="#7e22ce"/>
    </linearGradient>
  </defs>
  <path d="M32 6l16 7v19c0 11-7 21-16 26C23 53 16 43 16 32V13l16-7z" fill="url(#shield)"/>
  <path d="M32 9l13 6v17c0 9-5 17-13 22V9z" fill="#c084fc" opacity="0.32"/>
  <rect x="23" y="23" width="18" height="3.2" rx="1.6" fill="#ffffff"/>
  <rect x="23" y="30" width="14" height="3.2" rx="1.6" fill="#ffffff"/>
  <rect x="23" y="37" width="16" height="3.2" rx="1.6" fill="#ffffff"/>
  <circle cx="45" cy="45" r="8.5" fill="#ffffff"/>
  <circle cx="45" cy="45" r="7" fill="#7e22ce"/>
  <path d="M41.7 45l2.2 2.5 5-5.7" fill="none" stroke="#ffffff" stroke-width="2.4" stroke-linecap="round" stroke-linejoin="round"/>
</svg>
